<?xml version="1.0" encoding="utf-8"?>
<!-- Generator: Adobe Illustrator 25.0.1, SVG Export Plug-In . SVG Version: 6.00 Build 0)  -->
<svg version="1.1" id="Слой_1" xmlns="http://www.w3.org/2000/svg" xmlns:xlink="http://www.w3.org/1999/xlink" x="0px" y="0px"
	 viewBox="0 0 10 10" style="enable-background:new 0 0 10 10;" xml:space="preserve">
<style type="text/css">
	.st0{fill:#FFFFFF;}
</style>
<g>
	<path d="M7,3v6H1V3H7 M8,2H0v8h8V2L8,2z"/>
</g>
<g>
	<path class="st0" d="M2.5,1.5L2.5,1.5z"/>
	<polygon points="3,0 2,0 2,2 3,2 3,0 	"/>
</g>
<g>
	<rect x="8" y="7" class="st0" width="2" height="1"/>
	<polygon points="10,7 8,7 8,8 10,8 10,7 	"/>
</g>
<g>
	<rect x="3" class="st0" width="7" height="1"/>
	<polygon points="10,0 3,0 3,1 10,1 10,0 	"/>
</g>
<g>
	<path class="st0" d="M9.5,6.5L9.5,6.5z"/>
	<polygon points="10,1 9,1 9,7 10,7 10,1 	"/>
</g>
</svg>
